<svg xmlns="http://www.w3.org/2000/svg" viewBox="0 0 320 64" fill="none" stroke="#dedaF7" stroke-width="3" stroke-linecap="round" stroke-linejoin="round"><g id="cursor"><path fill="#b58aff" stroke="none" d="m10 8 12 37 7-13 13-7z"/></g><g id="scissors"><path d="m57 17 31 30M88 17 57 47M53 20a5 5 0 1 1-10 0 5 5 0 0 1 10 0Zm0 27a5 5 0 1 1-10 0 5 5 0 0 1 10 0"/></g><g id="grid"><path d="M105 14h34v34h-34zM116 14v34m12-34v34M105 25h34m-34 12h34"/></g><g id="browser"><path d="M155 13h36v38h-36zM155 13h8v38"/></g><g id="inspector"><path d="M207 13h36v38h-36zM235 13h8v38"/></g><g id="mixer"><path d="M267 16h42M267 32h42M267 48h42"/><circle fill="#b58aff" cx="281" cy="16" r="4"/><circle fill="#b58aff" cx="296" cy="32" r="4"/><circle fill="#b58aff" cx="276" cy="48" r="4"/></g></svg>
